<svg xmlns="http://www.w3.org/2000/svg" viewBox="0 0 643.59 514.21">
  <defs>
    <style>
      .cls-1 {
        fill: none;
        stroke: #272f33;
        stroke-linecap: round;
        stroke-linejoin: round;
        stroke-width: 2px;
      }
    </style>
  </defs>
  <g id="Layer_2" data-name="Layer 2">
    <g id="Layer_2-2" data-name="Layer 2">
      <path class="cls-1" d="M423.12,464.05s112,20,119,21,17,14,21,6c0,0,4.68-3.27,10-2s48.16,10.75,52,5c2-3-2-16-5-20-4.57-6.1-111-17-115-23s-7.3-66.35,39-64,35,65-7,62-37.72-40.8-31-53c11-20,85-21.78,96-77,10-50-13-69-61-66-28,1.74-51,29-6,36,30.64,4.76,31-48-8-49-38.2-1-21.7,27.44-23,37-.41,3-26.54,34.57-63,47-40.91,13.94-93.11,8.66-103,8-75-5-60-33-55-44,2.81-6,9.6-14.12,8-16-3.53-4.14-21.5,6.12-27,24-8,31,15,48,39,49,34,3,69.13-68.36-3-82-37-7-78.43,22.42-124,21-29.55-.93-51.15-13.75-56-31-5.67-20.12,9.69-45,35-45,53,5,48.49,83.41-6,89-39,4-63-28-58-55,10-37,41-30,50-41,2-9-28.65-34.06-59-44s-71.34-19.82-75-16-1.29,50.76,6,56,27,24,24,43-19.91,17.77-26,33-7.55,127.85-2,132,252,51,268,44,33.1-18.29,61-11,23.88,23.35,32,29,154.94,32,169,34c7,1,8,6,13,3,4.28-2.58,7.9-1.31,12,1s12.24.37,15.12-.82a16.55,16.55,0,0,1,14.66,2.06c5.22,3.76,12.86,5.9,19.22,6.76s5-2,10-1,8,3,11-3,9.46-50.08,8-80-1-50-7-53c-8.44-4.22-27.74-21.32-26-33,4-27,29-34,32-43s.38-21,1-31-6.44-22.21-16-28-86-36-101-47-44.55-40.32-60-35-13,30,8,30,55.09-20.24,19-35c-22-9-13.91,3-32,3-12,0-10.19-5-18-11s-13-7-17-14,3.9-33-5-45-32-18.87-37-15,10.76,11.47-33,16c-29,3-47.1-13.08-38-26s26.86-19.23-14-8-12,38,5,47c21.57,11.42,102,9,101-22s-52-25-51-33,73-13,75-25-35-19-68-20-227.89,14.1-278,46c-11,7-4.38,8.83-13,12s-8,1-16,2-54.74,40-52,49,44,17,61,19,52-30,78-19,23,33,30,41,110,26,127,21,28-24,52-15,16.78,28.42,23,37,209.5,54.34,224,52,7,3,12,3,3.68,1.06,8,1,4.25,2.55,10,2,14.93,2.06,15-6-35.9-32.1-59-42c-56-24-41.74-36.28-38-45,3-7-43.7-52.48-54-53s-31.44,6.52-35-9,5.81-11.53,4-24-27-33-27-33"/>
    </g>
  </g>
</svg>
