<svg xmlns="http://www.w3.org/2000/svg" viewBox="0 0 982 200.22">
  <defs>
    <style>
      .cls-1 {
        fill: none;
        stroke: #ca7482;
        stroke-linecap: round;
        stroke-linejoin: round;
        stroke-width: 2px;
      }
    </style>
  </defs>
  <g id="Layer_2" data-name="Layer 2">
    <g id="Layer_2-2" data-name="Layer 2">
      <path class="cls-1" d="M981,132s-37.93,4.45-53,10-71.33,41.4-92.67,47.2-27.05,6.44-42.69,7.62S741,176.82,729,147.91s.93-14.54,5.47-10.73S759,157,794,156c28.49-.81,39.87-3.24,52.66-9.93,17.34-9.07,4.16-6.51-13.59.43-14.07,5.5-43.73,6.17-64.4,2.84s-40.59-20.5-41.63-31.42,15.45-18.33,39.7-22.13c0,0,38.26-4.79,64.26.21,22.67,4.36,31.63,14.41,32,21s-15.34,30.2-69.67,29.6S733.19,122.94,733.59,115,760.47,97.81,795,97c14.47-.34,51.06,7.26,51,16s-38.16,20.26-54.58,18.63-38.35-4.9-36-20.78c1.6-10.85,25.91-9.34,39.26-9.59S825,107,817,111c0,0-19.66,8-28,6s-15.71-10-3-27c3-4,8.07-11,13-9s-7,20,9,26c10.82,4.06,41,5,46,10s7,11.19,7,15c0,6-2,23-16,38a70.46,70.46,0,0,1-49,22c-22.13.85-60.74-1.64-74-1-12.22.59-59.22-4.44-72-6-8-1-105-19-105-24,0-9.79,26.57-15.21,32-16s9-1.08,12-3,4.27-2.2,7-2,66.13,2.74,71,11-5.29,20.33,1,24c12,7,35-7.72,35-19,0-7-7.78-9.41-12-8-3,1,1,13-4,20s-18.25,11.33-28,11-92.56-15.28-92-21,14.17-10.2,20-9,5.54,12.83,3,13-6.28-20.72-1-26c3-3,27.27-10.09,32-10s19.37,5.89,29,8,33.25-.28,37,2-15.26,16.75-17,13,17.43-11.55,20-10,1.43,2.79,5,6,25.67,2.35,29,9c5,10-27,38-64,36-25-1.35-95-15-119-15s-73.27,7.47-91-9c-14-13-18-27-16-54s23-55.88,23-72c0-9,4-29-21-31C423.26,8,471,5,487,5s42.6.26,42,4-27.68,6.67-44,5-31-2-31-6,6-7,40-7c10.83,0,41,0,41,9,0,5.4-6,15-40,13-15-.88-32-3-32-1s13,5.93,28,7c28,2,31.91-7.85,37-2s-.37,6,2,25c3,24,17,36,17,58,0,0-4-.41-5-9-2-17,10.11-27,9-45s-9-22-14-21-8.32,4.62-8-3,5-9,12-9c10,0,22,18,20,49s-14.4,27.39-15,55-18.24,40-40,42-57.91-5-76-3-50,7-69,16c-.64-2.08,4.4-3.71,1-8s-14.95.24-19,0-5,1.12-5-6c0-3,4.82-4.9,9-4s8.76,6.09,8,11-8,6-6-3c.89-4,6-9,7-12,1,5,3.25,7.65,8,7s7.78-3.12,8-8-4-7-8-6-9,3-9-4c0-5,2.61-5.66,7-6s4,5.3,6,6,8.9-6.24,11-5,3.08,2.76,3,5-1,3-3,3-5.93-3.69-3-8a8.63,8.63,0,0,1,9-4c2.33.32,4.46,1.82,7,1,5.55-1.78,6,4,5,6-1.36,2.71-6,5-8,3-4-4,2.81-7.81,6-11s4.66-14.14-2-13-5.38,8,2,8c5,0,7.45-5.32,8-9s-1.69-6.89,2-9c7-4,9.64,5.39,3,6s-5-6-8-5-14.56,6.32-21,6-11.66,1.34-11,2,7.35.2,7,6c-2,6-13,7-14-4-1.34-1.34-4.93,3.22-8,3s-7,2-7,2c1,2.41,5,1.41,5,6,0,10-13.94,9.3-14,3,0-1,2-5,1-6a5.21,5.21,0,0,1-5,7c-6,0-2.58-4.16-4-6s-7,5-16,1c.41-2-1.06,27.86,1,29,0,0,11-8,11,3,0,7-8,6-11,9-3,5-1,17-1,21,1.71,1.5,14-5,19-6s10,0,13-2c0-4,3-8,6-3,3.33,1.83,18-5,30-8,11-4,35-10,35-15s-2.34-13.67,0-19,1.56-9.32,0-10c-6,7-11-6,1-6,0-8,2.51-13.16,0-17s-37-17-45-15-15.8,8.24-11,8c5-3,13,3,3,5-5,0-7.08-1-12,1-3,5-9.18,4.82-10,8,1,4-2,6-8,4-5.31-.32-9,11-22,11-4.52-1.2-10.63-13.14-11-30s6-19.5,1-30-56-21-86-17c-20.84,2.78-70.18,9.37-78,27-8,16-3,27.67-4,43-1.51,22.95-2.19,40.8,5,39,9,22,100.42,32.17,112,18,5.59-6.84.62-19.13,0-33-.66-14.85,2.7-31.33-1-39-7.16-14.84-39.52-26.84-31-32s30.88-1.41,45-2,34.29-7.5,41,3c3,4.73,1.1,16.07,1,27-.13,13.31.74,26.34-5,30-10.45,6.67-47,14-47-7,0-20.43-20.49-8.26-50-8S106,88,67,93,1,112,1,112"/>
    </g>
  </g>
</svg>
