<svg xmlns="http://www.w3.org/2000/svg" viewBox="0 0 805.26 541.88">
  <defs>
    <style>
      .cls-1 {
        fill: #272f33;
      }
    </style>
  </defs>
  <g id="Layer_2" data-name="Layer 2">
    <g id="Layer_2-2" data-name="Layer 2">
      <path class="cls-1" d="M684.73,151.58c2.43,27.55,2.83,55.2,4.52,82.79,1.82,29.68,5.74,59.11,12.82,88,7,28.65,18.42,55.81,34.9,80.34,6.49,9.67,13.72,19,22.23,27,5.45,5.11,12.06,10.66,19.6,12.18,14.76,3,20.21-17,22.58-27.7,5.53-24.82,4.56-51.36.77-76.35-4.4-28.95-14.33-56.6-27.87-82.5-11.44-21.9-25.53-42.17-39.67-62.37C710.85,159.05,686,121.25,694.69,77.68a138.24,138.24,0,0,1,4.2-16c1.46-4.44,3.1-10.37,6.57-13.75,3.19-3.11,4.16,2.24,4.54,4.7a65.86,65.86,0,0,1,0,16.42c-1.49,15-5.11,31.63-15.22,43.43-13.7,16-33,27.67-50.6,38.77-12.84,8.09-26.92,13.94-39.7,22.09a73.42,73.42,0,0,0-26.36,28.44c-5.87,11.22-9.78,24.15-18,34-8.86,10.7-24.64,13.68-36.93,18.78-24.07,10-40.82,32.2-50.72,55.72-10.72,25.44-12.46,53.06-3.12,79.16,8.13,22.69,20.11,45.24,38.71,61.08,16.66,14.17,37.9,20.83,59.66,17.9,21.2-2.86,38.52-16.22,50.7-33.26,26.79-37.49,32.63-87.5,17.47-130.64-6.89-19.6-18.84-42-38.73-51-19-8.61-46.9,1.39-52.94,22.39-5.73,19.91,8,41.76,23.28,53.44,14.25,10.91,38.13,15.65,46.06-5,3.8-9.93,3.17-21.4,1-31.63-2.22-10.74-6.56-20.57-14.33-28.45-17.39-17.62-44.13-24.37-67.1-31.17-11-3.26-22.08-6.14-32.69-10.55-11.53-4.78-22.92-9.89-34.26-15.11-49.53-22.79-97.91-48.05-145.7-74.25-50.76-27.83-100.7-57.07-150.83-86-16.77-9.68-33.56-19.36-50.7-28.36-11.35-6-22.94-11.93-35.14-15.95-6.06-2-14-4.46-20.27-1.66-13.79,6.19-3.3,29.62.84,38.56C84,82.09,118.57,115,158.33,138.2c37.39,21.86,78.79,36.54,120.61,47.31a767,767,0,0,0,113.79,20.05c13.39,1.36,26.82,2.41,40.28,2.91,10.13.38,21.23-1.05,31,1.75,6.43,1.85,22.66,7.49,18.46,16.68-3.4,7.45-9.83,13.85-15.36,19.73a415.83,415.83,0,0,1-41.87,38.84c-41.12,33.16-90,55.78-140.58,70.36A502.81,502.81,0,0,1,183.2,374.42c-37.54,2.82-74.9-4.07-109.7-18.31-21-8.6-42.44-19.72-59.07-35.46-6.66-6.3-19.23-19.84-7.17-27.06,5.72-3.41,12.68-4.88,19.14-6.11A248.66,248.66,0,0,1,56,284c24.91-1.66,49.95-1.43,74.89-.59,27,.91,53.94,2.85,80.85,5.29,28.12,2.55,56.3,5.57,84.56,6.08,23.65.43,47.75-1.16,70.63-7.52,13.54-3.77,26.6-9,39.53-14.46,5.56-2.35,11.09-4.77,16.71-7,3.52-1.39,7.24-3,11-3.56,7.81-1.14-1.63,7-3.52,8.68-6.95,6.14-14.23,11.94-20.35,18.95-5.49,6.27-10.6,13.89-10.85,22.49-.23,8.22,4.12,14.61,11,18.74,9.22,5.56,19.53,8.75,28.32,15.16,9.46,6.92,16.64,16.29,21.81,26.74,9.3,18.81,13,40.43,13.12,61.28.14,21.54-3.6,43.92-13.76,63.12a75,75,0,0,1-18.11,22.91c-10.83,9-24.94,14.94-38.61,17.87-28.19,6-56.27-3.75-77.25-22.88-17.38-15.85-27.11-36.65-28.73-60.09-1.55-22.47,3.58-45.37,13.23-65.64,8.91-18.69,22.2-36.58,40.32-47.2,19.75-11.57,46.49-12.37,67.05-2.32,21.13,10.33,33,35.7,32.3,58.7-.3,9.4-3.48,19.82-12.67,24.07-10.45,4.83-24.22,2.05-32.62-5.5-8.75-7.87-13.07-19.68-15.4-30.93-2.07-9.92-2.71-19.86-.43-29.79,4.4-19.15,16.87-35.64,30.32-49.48,15.36-15.8,33.14-29.18,51.53-41.23a538.37,538.37,0,0,1,51.81-29.78c17-8.63,34.67-15.78,52-23.86,48.79-22.83,86.08-62.8,109-111.23.55-1.16-1.17-2.17-1.73-1-11.47,24.24-26.48,46.75-45.23,66a209.92,209.92,0,0,1-37.51,30.72c-11.52,7.32-23.84,13.18-36.31,18.68C527.55,231,493.2,248,461.38,269.89c-17.7,12.21-34.79,25.79-49.11,41.9-12.19,13.7-23,30-26,48.45-1.53,9.45-.53,19,1.56,28.29,2.31,10.23,6.31,20.69,13.67,28.39,12.39,13,38.79,15.31,47.4-3.12,3.93-8.42,3.8-18.36,2.3-27.34a78.45,78.45,0,0,0-12.31-31c-13-19.14-38-25.9-60.08-23.86-42.41,3.92-69.65,44.81-79.52,82.91-5.41,20.86-6.3,43.51.3,64.21,7.05,22.11,23.37,40.07,43.32,51.55,23.61,13.59,51.39,15.18,76.6,5,10.63-4.29,20.85-10,28.89-18.29a84.14,84.14,0,0,0,16-24.08c8.62-19.13,11.77-40.6,11.28-61.46-.48-20.29-4.32-41.12-13.36-59.41a74.93,74.93,0,0,0-19.58-25.19c-8.55-6.95-18.55-10.76-28.22-15.75-8.74-4.51-14.68-11.76-12.62-22.14,1.92-9.64,9.25-17.55,16.12-24.12,5.94-5.67,12.73-10.53,18.39-16.48,2-2.08,5.46-6.84.72-8.09-2.38-.63-5.37.46-7.61,1.16-4.71,1.48-9.27,3.44-13.82,5.35-12.56,5.27-25.05,10.71-38,15.08-50.44,17.06-104.56,10.45-156.48,5.73-52.88-4.81-106.19-8.76-159.31-5.91-10.15.54-20.32,1.36-30.37,2.91-7.25,1.11-14.67,2.5-21.45,5.39-3.7,1.57-8.12,3.91-9.54,8-1.56,4.48.74,9.46,3.12,13.19,4.21,6.58,10.2,12,16.25,16.86a182.34,182.34,0,0,0,26.51,17.4,263.65,263.65,0,0,0,76.13,27.53c27.54,5.38,54.53,4.74,82.11,1.32a507.93,507.93,0,0,0,119.89-29.68c45.63-17.58,87.2-42.75,123.11-76,7.61-7,15.08-14.25,22.13-21.85,5.27-5.7,11.3-11.9,14.56-19.06,2.93-6.42-1.92-10.76-7.29-14.05a46.83,46.83,0,0,0-25.73-7c-24.19.86-48.76-1.77-72.73-4.65a736,736,0,0,1-119.33-24c-42-12.31-83.52-29-119.61-54.11-17.3-12-33.2-26.11-46.42-42.55A219,219,0,0,1,68.45,43.52C63.72,34.21,58,22.43,59.12,11.62c1-9.44,8.93-10.38,16.59-8.85C86.61,5,97,10.06,106.91,15,144.56,33.5,180.44,55.8,216.73,76.82c55.84,32.34,112,64.08,169.41,93.64,35.35,18.23,71.1,35.89,107.7,51.5A170.08,170.08,0,0,0,510,228.33c14.13,4.36,28.41,8.23,42.45,12.88,12.44,4.11,25,8.81,35.95,16.06,9.84,6.49,17.83,15.25,21.69,26.53S615.81,308,613,319.62c-2.75,11.2-10.9,18.32-22.71,17.37-11.17-.89-21.32-7.83-28.85-15.73C553.53,313,547.28,302.4,545.47,291c-2.09-13.1,3.43-24.69,14.56-31.88,10.69-6.9,24.33-9.12,36.13-3.83,9.84,4.41,17.63,12.65,23.67,21.39,28,40.49,28.74,95.59,7.7,139.08-9.78,20.21-25,39.47-46.73,47.41s-46.65,3.78-65.41-9.47c-20.74-14.65-34.06-38.06-42.85-61.38-5.24-13.92-8.17-28-7.34-43a116.6,116.6,0,0,1,11-42.48,122.14,122.14,0,0,1,22.36-33.06,70.63,70.63,0,0,1,16.38-13.09c6.48-3.61,13.48-6.08,20.41-8.64,6.45-2.38,12.9-4.88,18.78-8.46a34.22,34.22,0,0,0,10.8-11c7-10.78,10.91-23.26,17.41-34.34,7.58-12.93,19.41-21.62,32.43-28.6,6.44-3.45,13-6.6,19.45-10.14,7.26-4,14.23-8.57,21.16-13.13,15-9.87,31.6-20.47,42.76-34.89,9.45-12.22,12.75-29.14,14-44.11a64.35,64.35,0,0,0-.19-15.32c-.35-2.2-.91-5.63-3.08-6.88-5.46-3.14-9.64,9.63-10.76,12.69a108.39,108.39,0,0,0-4.54,60.91c4.33,19.7,14.17,37.56,25.09,54.31,12.85,19.71,27.12,38.45,39.62,58.41,15,24,27.71,49.64,35.49,76.9a240.15,240.15,0,0,1,8.54,86.28c-.94,10.64-2.61,21.58-6.59,31.55-2.24,5.62-6,13.34-12.9,13.94-7.77.69-15.55-5.88-20.88-10.69-9-8.11-16.51-17.82-23.23-27.83C721.41,376,710,347.54,703,317.46c-6.65-28.29-10.2-57.07-11.88-86.06-1.53-26.61-2-53.26-4.34-79.82-.11-1.27-2.12-1.29-2,0Z"/>
    </g>
  </g>
</svg>
