<svg xmlns="http://www.w3.org/2000/svg" xmlns:xlink="http://www.w3.org/1999/xlink" width="743.978" height="410.341" viewBox="0 0 743.978 410.341">
  <defs>
    <clipPath id="clip-path">
      <rect id="Rectangle_15" data-name="Rectangle 15" width="257.777" height="205.688" fill="none"/>
    </clipPath>
  </defs>
  <g id="Group_44" data-name="Group 44" transform="translate(-980.022 -453)">
    <g id="Group_256" data-name="Group 256">
      <g id="Ellipse_3" data-name="Ellipse 3" transform="translate(1361 453)" fill="none" stroke="rgba(255,241,208,0.84)" stroke-width="4">
        <circle cx="181" cy="181" r="181" stroke="none"/>
        <circle cx="181" cy="181" r="179" fill="none"/>
      </g>
      <text id="Esbjergs_bedste" data-name="Esbjergs bedste" transform="translate(1036 601)" fill="#272f33" font-size="60" font-family="JosefinSlab-Regular, Josefin Slab"><tspan x="0" y="0">Esbjergs bedste</tspan></text>
      <text id="oste_" data-name="oste " transform="translate(1222 731)" fill="#a33146" font-size="198" font-family="BodoniURW-Bol, Bodoni URW"><tspan x="0" y="0">oste </tspan></text>
      <text id="_og_meget_mere" data-name="…og meget mere" transform="translate(1290 800)" fill="#272f33" font-size="60" font-family="LucidaGrande, Lucida Grande"><tspan x="0" y="0">…</tspan><tspan y="0" font-family="JosefinSlab-Regular, Josefin Slab">og meget mere</tspan></text>
      <g id="Artwork_8" data-name="Artwork 8" transform="translate(1108.911 760.497)">
        <g id="Group_43" data-name="Group 43" transform="translate(-128.889 -102.844)" clip-path="url(#clip-path)">
          <path id="Path_74" data-name="Path 74" d="M24.2,23.466c-.438,1.076-1.434,1.474-2.39,1.992C15.672,28.8,9.856,32.589,5.116,37.807c-1.872,2.071-3.585,4.223-4.063,7.131a1.709,1.709,0,0,0,1.235,2.231,72.581,72.581,0,0,0,13.743,3.944,63.612,63.612,0,0,0,9.561,1.434c3.267.159,5.179-.916,7.529-2.032,4.3-2.071,8.525-4.382,13.146-5.458a20.834,20.834,0,0,1,10.357.2c6.931,1.832,9,7.131,10.875,12.867a8.524,8.524,0,0,1,.2,1.593c.239,1.872,1.235,2.549,3.187,2.868,5.657.916,11.274,2.31,16.93,3.267,7.768,1.354,15.456,2.988,23.264,4.023,1,.12,1.992.239,2.988.438a10.143,10.143,0,0,0,7.569-1.633c2.31-1.474,5.059-3.864,8.126-5.019,6.294-2.31,14.739.558,17.329,6.812a27.984,27.984,0,0,1,1.354,6.772,2.269,2.269,0,0,0,1.832,2.151c6.055,1.633,12.15,3.306,18.285,4.621s11.552,2.828,17.329,4.143c6.414,1.474,12.867,2.749,19.281,4.183s12.03,2.948,18.125,4.1c3.466.677,6.892,1.315,10.317,2.071,1.474.319,2.908.518,4.382.757M35.152,18.487c2.071-.08,3.7-1.354,5.537-2.032A203.738,203.738,0,0,1,66.782,9.325c7.21-1.554,14.46-2.629,21.71-3.9,3.864-.677,7.808-1,11.752-1.434q8.246-.876,16.532-1.593c5.218-.438,10.477-.916,15.735-1.155s10.2-.2,15.337-.239c7.051-.04,13.743,1.872,20.2,4.78a11.165,11.165,0,0,1,2.39,1.753,2.187,2.187,0,0,1-.8,3.585,94.708,94.708,0,0,1-10.955,2.988q-7.768,1.793-15.5,3.784a1.952,1.952,0,0,0-1.593,1.554M75.346,175.6c.916-.478,1.713.04,2.589.2l20.675,3.784c2.908.518,5.816,1.155,8.764,1.554a6.562,6.562,0,0,0,5.975-1.753,16.334,16.334,0,0,1,6.175-4.183,20.978,20.978,0,0,1,9.561-.8c4.78.518,9.282,1.713,13.146,4.78a22.873,22.873,0,0,1,5.975,8.047,3.386,3.386,0,0,0,2.549,1.952c8.166,1.912,16.452,3.267,24.7,4.7l34.976,6.294c1.633.279,3.306.518,4.979.677s1.992,1.2,3.187,1.394M3.283,56.291c0,1.793.08,3.585,0,5.378-.239,4.78.319,9.561.438,14.3.04,1.673,1.235,2.749,2.39,3.784a56,56,0,0,1,6.772,6.971c4.063,5.218,3.784,11.911-1,16.532A17.591,17.591,0,0,1,8.7,106.046c-2.828,1.633-3.745,4.183-4.063,7.37-.518,5.7-.478,11.433-.438,17.129.12,10.756-.04,21.471.12,32.227m196.789,10.357c-1.394,2.908-.438,7.848,2.191,8.923a19.758,19.758,0,0,0,4.382,1.036c8.366,1.275,16.731,2.51,25.057,3.824a111.994,111.994,0,0,1,13.943,2.749,3.047,3.047,0,0,1,2.43,2.191l.916,3.227c.837,2.868-.08,3.824-2.948,4.143s-5.3-.359-7.967-.717a33.668,33.668,0,0,1-8.565-1.832c-1.912-.8-3.784-.956-5.577.4m-2.589-94.092a5.246,5.246,0,0,0,.438,2.589c1.514,5.418-2.43,11.871-10.158,10.716a14.142,14.142,0,0,1-6.175-2.35c-3.267-2.271-3.585-6.135,0-8.565s6.971-2.749,10.756-3.187c1.753-.2,3.545-.6,5.179.6,2.988-.837,5.736.4,8.565.956,5.5,1.076,8.286,4.82,9.481,9.8,1.673,6.852,1.514,13.624-1.514,20.2a19.453,19.453,0,0,1-5.019,6.055,64.248,64.248,0,0,1-17.687,11.552,25.532,25.532,0,0,1-4.581,1.394c-5.258,1.155-10.317,5.975-11.154,10.716-.279,1.673-.279,1.673,1.2,2.669M70.765,114.173c-2.31-1.155-4.94-.717-7.37-1.394-4.382-1.2-8.525-2.709-11.951-5.936s-3.944-7.25-2.31-11.433a22.048,22.048,0,0,1,7.29-9.481c3.187-2.589,5.338-2.629,8.565-1.434,5.418,1.992,9.72,5.019,11.274,10.8s.677,10.238-1.514,15.138c-.837,1.832-1.673,3.466-3.9,3.784M161.67,32.828c-1.115,4.3-4.621,6.175-8.166,7.967-7.29,3.625-15.1,5.3-23.065,3.665a31.284,31.284,0,0,1-17.129-9.2,6.9,6.9,0,0,1-2.231-4.541,5.218,5.218,0,0,1,2.032-4.382,27.221,27.221,0,0,1,9.76-4.78c2.191-.677,4.382-1.434,6.772-.677a2.429,2.429,0,0,0,1.992-.518,3.545,3.545,0,0,1,2.749-.319M256.4,112.778a31.4,31.4,0,0,1-.2,7.967c-.159,1.434-1.2,2.071-2.191,2.788a37.4,37.4,0,0,0-6.772,5.776,14.758,14.758,0,0,0-3.824,8.525c-.2,3.346,1.514,6.095,3.984,8.366a35.533,35.533,0,0,0,5.617,4.3,4.711,4.711,0,0,1,2.35,4.063,261.8,261.8,0,0,1,.956,28.244,83.387,83.387,0,0,1-1,14.1,21.892,21.892,0,0,1-1.713,6.414c-1.076,2.071-1.474,2.988-4.223,2.47M3.682,57.287c1.872-.319,3.585.438,5.378.757,4.462.757,8.923,1.673,13.345,2.669,7.011,1.593,13.863,3.466,19.958,7.648a141.583,141.583,0,0,1,11.871,8.684,12.19,12.19,0,0,1,1.992,2.39c1.474,2.111.916,3.107-1.554,4.023a30.376,30.376,0,0,1-5.219,1.076c-5.338,1-8.525,4.422-10.676,8.963a16.989,16.989,0,0,0-1.912,9.242,17.921,17.921,0,0,0,6.414,11.752c6.732,6.015,16.532,6.493,24.7,2.709a4.855,4.855,0,0,0,2.788-2.749m149.026-13.026c-1.2-2.669-3.7-3.386-6.175-3.944-3.585-.837-7.17-.916-10.357,1.514-2.35,1.832-4.581,6.812-2.47,10.517a3.021,3.021,0,0,1-.12,3.625,36.794,36.794,0,0,1-9.122,8.963,59.515,59.515,0,0,1-16.532,8.764,38.084,38.084,0,0,1-7.768,1.633,212.692,212.692,0,0,1-24.26,1.155c-2.47,0-4.9-.159-7.37-.159a3.306,3.306,0,0,1-1.793-.6m68.239,32.586c1.275-1.275,1.155-3.227,2.191-4.581,3.028-3.864,7.21-5.218,11.911-5.617s7.768.757,10.357,4.223a13.681,13.681,0,0,1-1.354,17.129c-4.541,4.462-12.947,4.183-17.767,1.2-2.31-1.434-3.665-3.864-6.095-5.059-.319-.159-.4-1-.4-1.554.04-1.673-.279-3.346.359-4.979M218.6,64.617c-.319-.08-.876-.04-.956-.2-1.554-2.828-4.1-4.82-6.254-7.091-4.183-4.382-8.286-8.844-13.106-12.548a4.564,4.564,0,0,0-4.382-1.036,16.41,16.41,0,0,1-6.732.159,5.773,5.773,0,0,1-3.187-1.315c-2.271-2.151-2.828-4.86-.677-8.007,1.633-2.43.677-4.223-.558-5.9a81.576,81.576,0,0,0-9.72-11.552m80.986,83.5a15.675,15.675,0,0,0-1.992-1.992,34.013,34.013,0,0,0-8.565-4.541c-3.067-1.036-5.458-2.629-8.206-3.585s-5.577-1.832-8.286-2.948a121.5,121.5,0,0,1-12.947-6.175,54.161,54.161,0,0,1-12.269-9.839,2.59,2.59,0,0,1-.279.518c-4.183,4.1-9.322,5.059-14.938,4.382-4.3-.518-5.657-4.7-3.745-8.126a19.869,19.869,0,0,1,2.549-2.988M4.478,167.672l-.837-4.541c1.952-1,3.745-.438,5.418-.159,6.135.956,12.23,2.032,18.324,3.147l14.938,2.788c5.3,1,10.636,1.952,15.894,3.028a3.585,3.585,0,0,0,1.992-.04m58.081-65.689a2.3,2.3,0,0,1,2.191-.359,72.06,72.06,0,0,1,6.971,1.992c3.824,1.354,6.374,4.223,8.126,7.728s2.35,7.21.956,10.915c-1.076,2.868-1.952,6.135-5.537,7.17h-.4c-.637,2.231-2.749,2.629-4.422,3.306-5.378,2.31-10.6,2.111-15.3-1.753s-6.095-9.839-4.82-16.094c1.076-5.338,4.9-10,10.158-10.357M219.392,194.72a38.623,38.623,0,0,1-9.122-1.076c-5.1-1.036-10.238-1.872-15.337-2.868s-9.162-1.753-13.743-2.589c-3.984-.717-7.887-1.753-11.951-2.191M217.6,64.617c-.8,1.315-2.271,2.111-2.231,3.984A8.052,8.052,0,0,0,217.6,73.58a28.764,28.764,0,0,0,12.548,7.927c3.625,1.275,7.25,2.35,10.357,4.78,4.78,3.745,9.959,7.011,14.341,11.353.916.916,1.593,1.832.956,3.107-2.549,1.514-5.5.04-8.127,1.076M153.345,30.039c.717,3.107-.2,4.3-3.386,5.019a45.773,45.773,0,0,1-6.772.916c-4.262.279-8.525.677-12.747-.359a7.585,7.585,0,0,1-5.776-5.776c-.837-3.028.876-4.462,2.589-6.175a4.94,4.94,0,0,1,1.2-.8,1.841,1.841,0,0,0,1.2-1.793m-55.69,91.7a4.223,4.223,0,0,0,2.988.359c6.653-1.474,13.225-3.267,19.918-4.462a80.672,80.672,0,0,1,10.716-1.514c2.31-.119,4.621-.677,6.971-.558l4.581.2M140.2,19.284c1.992.717,3.864,1.832,5.975,2.151a33.861,33.861,0,0,1,8.565,2.589,12.309,12.309,0,0,1,5.736,4.82c.159.279.518.518.438,1-.319,2.39,1.275,3.107,3.147,3.824a19.4,19.4,0,0,1,3.984,2.191A3.2,3.2,0,0,1,169.677,39c-.279,3.187-.359,6.374-.438,9.561-.12,4.262,1,7.848,5.139,10a25,25,0,0,1,4.581,3.346,7.02,7.02,0,0,0,4.979,2.032c.637-.04,1.713-.08,1.673,1.155m-55.173,68.358a14.918,14.918,0,0,0-4.382-1,25.787,25.787,0,0,1-8.764-2.35c-4.143-2.151-6.135-5.537-5.577-9.76a15.4,15.4,0,0,1,3.067-6.692c1.394-1.952,2.549-3.9,1.713-6.414M185.97,64.418c1.036-.2,1.394-1.275,2.191-1.793,1.793-1.2,3.864-.876,5.776-.717a11.513,11.513,0,0,1,7.967,3.745c1.554,1.713,1.633,3.506.2,5.577m-14.938-7.37a11.314,11.314,0,0,0,3.187,1.076,21.057,21.057,0,0,1,10.756,6.294m47.723,134.008c-.478-.4-.916-.08-1.394,0a9.478,9.478,0,0,1-6.573-1m-88.316-174.2c1.832-1.036,3.545-.08,5.139.478a19.361,19.361,0,0,0,3.028.916m59.076,170.856c1.554-.677,3.147-1.275,4.78-.2m4.78.4a4.3,4.3,0,0,1-4.462-.4m21.95-101.86c-1.275,1.155-2.669-.518-3.984.2M256.6,108.4l1.394-3.585M66.981,173.05a8.047,8.047,0,0,1-2.788.6" transform="translate(-0.614 -0.601)" fill="none" stroke="#ca7482" stroke-linecap="round" stroke-linejoin="round" stroke-width="0.797"/>
        </g>
      </g>
    </g>
  </g>
</svg>
