<svg xmlns="http://www.w3.org/2000/svg" width="36.878" height="36.878" viewBox="0 0 36.878 36.878">
  <path id="phone-solid" d="M35.528,1.762,28.037.033a1.74,1.74,0,0,0-1.981,1L22.6,9.1a1.724,1.724,0,0,0,.5,2.017l4.365,3.572A26.693,26.693,0,0,1,14.7,27.453l-3.572-4.365a1.727,1.727,0,0,0-2.017-.5L1.042,26.049A1.749,1.749,0,0,0,.034,28.037l1.729,7.491a1.728,1.728,0,0,0,1.685,1.34,33.416,33.416,0,0,0,33.42-33.42A1.727,1.727,0,0,0,35.528,1.762Z" transform="translate(0.01 0.011)" fill="#fffcf5"/>
</svg>
