<svg xmlns="http://www.w3.org/2000/svg" width="338.333" height="338.466" viewBox="0 0 338.333 338.466">
  <g id="Group_145" data-name="Group 145" transform="translate(0 0)">
    <path id="Path_2229" data-name="Path 2229" d="M298.7,761.864a37.539,37.539,0,0,0-13.543-2.822c-6.307-.326-12.619-.548-18.93-.794-10.746-.42-19.118-5.174-25.153-13.983-3-4.374-5.935-8.813-8.529-13.432-5.384-9.589-13.394-16.322-22.781-21.614A120.124,120.124,0,0,1,198,701.608c-8.891-6.479-12.5-15.578-12.893-26.21-.292-7.946-.154-15.925-1.525-23.788a31.055,31.055,0,0,0-5.083-13.246,52.249,52.249,0,0,0-5.345-10.423c-8.288-13.648-8.121-27.1,0-40.833,4.678-7.906,9.7-15.821,10.746-25.28.592-5.393.7-10.839,1.041-16.261.212-3.4.367-6.81.676-10.206.884-9.69,5.521-17.2,13.513-22.63,4.073-2.767,8.191-5.5,12.467-7.924a56.96,56.96,0,0,0,21.9-22.031,103.647,103.647,0,0,1,9.83-14.834,29.13,29.13,0,0,1,21.282-10.891c5.67-.419,11.359-.711,17.043-.764a51.553,51.553,0,0,0,24.662-6.395c4.762-2.6,9.6-5.068,14.412-7.579,10.28-5.366,20.56-5.319,30.824.047,4.362,2.281,8.769,4.483,13.059,6.893a53.813,53.813,0,0,0,26.78,7.069c6.816.008,13.653.053,20.4,1.357a28.409,28.409,0,0,1,16.386,9.466,84.839,84.839,0,0,1,10.361,15.372c5.669,10.32,13.883,17.864,24.055,23.511,2.756,1.529,5.351,3.348,8.057,4.97,11.37,6.815,16.311,17.1,16.464,30.078a148.477,148.477,0,0,0,1.327,21.538,48.425,48.425,0,0,0,5.464,15.247c2.374,4.455,4.788,8.888,7.138,13.353q8.583,16.313.027,32.659c-1.58,3.021-3,6.145-4.823,9.016-6.587,10.376-9.075,21.776-9.017,33.913a100.317,100.317,0,0,1-.823,14.369,29.417,29.417,0,0,1-11.432,19.806c-5.585,4.394-11.81,7.781-17.8,11.534A50.946,50.946,0,0,0,440.6,729.375c-3.169,5.165-6.392,10.3-9.8,15.312-5.969,8.777-14.464,13.082-24.98,13.561-5.179.236-10.358.6-15.537.61a51.781,51.781,0,0,0-24.966,6.661c-5.211,2.831-10.46,5.605-15.812,8.153-8.984,4.278-17.985,4.013-27.076-.027C314.344,770.053,307.071,764.857,298.7,761.864Zm-63.78-165.512c.242-4.935-3.461-8.2-8.2-7.116a4.063,4.063,0,0,1-2.834-.018c-5.588-2.341-9.093-.386-10.052,5.477-.3,1.866-.411,3.765-.692,5.636-.4,2.648.933,3.619,3.36,3.863,4.383.438,8.745,1.129,13.134,1.472,2.7.212,5.018-.353,4.744-4.047A28.965,28.965,0,0,1,234.922,596.351Zm194.709,79.986c3.589-1.531,7.16-3.089,10.76-4.578,1.84-.761,2.191-1.572.391-2.828q-6.682-4.657-13.316-9.384c-1.685-1.2-2.89-1-4.044.839-1.085,1.727-.636,2.645.954,3.657,2.464,1.568,4.8,3.346,7.57,5.31-4.646,2.164-8.443,4.882-12.691.769-1.323-1.281-2.5-.475-3.391.912-.861,1.345-1.146,2.488.432,3.543,4.517,3.013,9,6.075,13.507,9.11,1.5,1.009,2.847.989,3.834-.715.962-1.663.332-2.846-1.161-3.812A5.9,5.9,0,0,1,429.632,676.338Zm18.85-53.813c6.1-.052,10.578-4.436,10.585-10.375s-4.958-11.043-10.661-10.944A10.954,10.954,0,0,0,437.6,612.031C437.629,618.14,442.23,622.576,448.482,622.524Zm-11.968-75.235c1.592-1.166,2.656-1.829,3.581-2.65,1.456-1.291.428-2.54-.272-3.7a1.813,1.813,0,0,0-2.849-.676c-4.783,2.8-9.63,5.5-14.427,8.28a2.168,2.168,0,0,0-.823,3.481c.918,1.406,1.761,2.443,3.576,1.149a10.848,10.848,0,0,1,3.065-1.437,2.959,2.959,0,0,1,2.881.487c.968.947-.129,1.834-.571,2.66-.834,1.557-1.816,3.035-2.615,4.608a4.029,4.029,0,0,0,1.606,5.593c2.161,1.138,2.275-1.621,3.1-2.811a37.058,37.058,0,0,0,2-3.649c2.858-5.3,2.847-5.263,8.736-3.872,1.026.242,2.309,1.25,3.182.219,1.047-1.234-.352-2.307-.86-3.369a4.773,4.773,0,0,0-3.176-2.5C440.857,548.589,439.073,548.049,436.514,547.289ZM311.829,724.645c-.076,1.98-.58,3.668,1.956,4.059,2.712.419,3.135-.963,3.4-3.167.237-1.985-.441-4.756,3.4-4.476,4.485.324,3.286,3.031,2.854,5.61-.274,1.634-.727,3.3,1.876,3.6,2.19.251,3.3-.413,3.554-2.68.569-5.129,1.26-10.245,1.876-15.369.119-.989.338-2.152-1-2.5-1.062-.278-2.193-.937-3.289-.25-1.589,1-1.027,2.73-1.166,4.156-.233,2.388-1.116,3.208-3.671,2.694-2.289-.46-3.5-1.09-2.732-3.621a12.324,12.324,0,0,0,.429-2.6c.157-2.016-1.446-2.091-2.774-2.362-1.528-.312-2.324.32-2.543,1.939C313.311,714.8,312.524,719.906,311.829,724.645Zm78.728-227.466a8.054,8.054,0,0,0-1.374,1.205c-2.21,3.085.031,4.2,2.379,5.241,2.4,1.065,3.042,1.96.151,3.479-3.452,1.812-6.666,4.076-10.025,6.071-2.08,1.236-2.138,2.29.044,3.429a66.435,66.435,0,0,0,7.378,3.832c1.746.645,3.445,4.235,5.625.927,2.327-3.535-1.569-3.8-3.2-4.948-1.883-1.315-1.863-1.991.064-3.1,3.391-1.944,6.631-4.155,10.066-6.008,2.852-1.539,2.484-2.706-.018-4.071-2.656-1.45-5.285-2.948-7.935-4.409C392.723,498.288,391.716,497.785,390.556,497.179ZM267.029,685.32c.861-2.265-.756-3.812-2.762-4.258-2.577-.574-2,2.2-2.341,3.449-1.4,5.1-2.447,10.292-3.622,15.453-.218.954-.8,1.953.129,2.828.959.9,1.925.245,2.8-.157q8.257-3.776,16.479-7.631c2.009-.944,1.88-2.07.195-3.337-1.251-.942-2.312-1.6-4.088-.942C270.724,691.87,266.981,688.928,267.029,685.32Zm109.214,35.8c.152.966-.559,2.522.916,2.485,1.565-.04,3.341-.622,3.873-2.485a40.661,40.661,0,0,0,1.044-5.171c.271-1.791,1-2.086,2.479-1.07a37.394,37.394,0,0,0,4.485,2.8,3.383,3.383,0,0,0,4.375-1.234c1.367-1.913-.919-2.185-1.8-2.954-4.073-3.538-9.816-5.372-11.336-11.493-.466-1.876-1.9-1.54-3.357-.979-1.616.621-2.347,1.583-1.431,3.153,2.633,4.514,1.826,9.248,1.078,14C376.411,719.166,376.344,720.177,376.243,721.116ZM334,497.43h.024q0,2.842,0,5.683c0,2.109,1.189,2.893,3.158,2.849,1.924-.043,2.633-1.012,2.583-2.9-.085-3.153.072-6.316-.036-9.469-.081-2.353-.072-4.3,3.217-3.955,1.642.172,2.048-1.131,2.055-2.546,0-1.224-.212-2.621-1.676-2.426-3.934.519-7.815-.329-11.721-.177-1.743.067-2.427.985-2.392,2.688.029,1.424.28,2.651,2.018,2.488,2.554-.239,2.965,1.122,2.8,3.222C333.9,494.392,334,495.914,334,497.43ZM236,538.2c-1.764-.023-2.376,1.164-2.972,2.239-.694,1.251-.006,2.083,1.036,2.82,4.313,3.045,8.632,6.084,12.873,9.227,1.883,1.394,3.074,1.032,4.279-.874,1.543-2.441,3.3-4.747,4.958-7.118.915-1.309,2.3-2.523.178-4.076-2.024-1.479-3.115-.434-4.339,1.112-3.952,4.989-3.989,4.973-9.046,1.45-1.65-1.149-3.245-2.376-4.891-3.529C237.371,538.956,236.6,538.554,236,538.2Zm46.205-40.845c-2.709.155-3.773,2.131-2.528,4.558q3.433,6.7,6.768,13.437c.816,1.656,1.651,2.723,3.751,1.648,1.849-.947,2.309-2.015,1.338-3.891-2.479-4.785-4.858-9.623-7.29-14.432C283.837,497.858,283.275,497.2,282.21,497.355Zm18.273,87.427h.047c0,1.642-.035,3.286.014,4.926a1.358,1.358,0,0,0,1.365,1.493c.807.035,1.633-.14,1.82-1,1.214-5.616,2.33-1.91,3.481.015a2.179,2.179,0,0,0,2.634.94c.59-.135.968-.7.671-1.1-1.809-2.437-.624-4.668.125-7.078a3.5,3.5,0,0,0-2-4.129,9.682,9.682,0,0,0-7.033-.276c-2.172.65-.724,3.1-1.106,4.7A6.673,6.673,0,0,0,300.483,584.782Zm32.408,57.546a6.253,6.253,0,0,0-6.439-6.415,6.374,6.374,0,0,0-6.818,6.1,6.633,6.633,0,1,0,13.257.317Zm26.039.024h-.015c0,1.385.037,2.771-.011,4.155-.05,1.5.42,2.4,2.126,2.354,1.886-.046,3.78.128,5.546-.775a6.428,6.428,0,0,0,3.3-7.643c-1.068-3.515-4.6-5.512-8.821-4.709-3.773.72-1.517,3.863-2.117,5.865A2.693,2.693,0,0,0,358.93,642.353Zm-6.835-.026a6.147,6.147,0,0,0-6.433-6.416,6.333,6.333,0,0,0-6.582,6.364,6.5,6.5,0,0,0,6.31,6.705A6.423,6.423,0,0,0,352.1,642.327ZM331.41,582.288c1.438-1.309,2.756-.726,3.951-.858,1.071-.12,2.053-.242,2.059-1.642.006-1.461-1.039-1.428-2.083-1.542-7.022-.772-7.288-.554-7.351,6.3a12.046,12.046,0,0,1-.041,1.892c-.664,3.865.912,5.512,4.762,4.721,1.63-.335,4.468,1.287,4.593-1.621.106-2.538-2.551-.98-3.914-1.437a3.711,3.711,0,0,0-.374-.043c-.609-.137-1.338-.216-1.19-1.094.1-.583.651-.7,1.166-.724,1.281-.056,3.12.7,3.082-1.569-.041-2.536-2.257-1.225-3.474-1.7A10.808,10.808,0,0,1,331.41,582.288Zm4.823,37.882a6.383,6.383,0,0,0,6.635-6.322,6.5,6.5,0,1,0-12.988-.314A6.422,6.422,0,0,0,336.233,620.17ZM355.8,585.181h-.029c0-1.637.008-3.275,0-4.913-.006-.945-.216-1.785-1.365-1.893-1.084-.1-1.622.482-1.743,1.517-.3,2.618-1.718,1.9-3.155,1.038-.756-.451-1.511-.913-2.225-1.428-1.785-1.281-2.928-1.5-2.8,1.35.108,2.388-.067,4.788,0,7.179.033,1.253-.583,3.167,1.636,3.08,2.188-.087,1.254-2.013,1.5-3.228.227-1.141-.686-3.111.861-3.232,1.665-.131,3.271,1.181,4.025,2.9a7.386,7.386,0,0,1,.178,2.243,1.43,1.43,0,0,0,1.785,1.435,1.364,1.364,0,0,0,1.33-1.514C355.821,588.2,355.8,586.694,355.8,585.181Zm-6.132,28.462h.053c0,1.636-.03,3.272.012,4.908a1.341,1.341,0,0,0,1.42,1.42c.657.024,1.385-.111,1.534-.81,1.324-6.226,2.573-1.706,3.84.014a1.832,1.832,0,0,0,2.336.683c1.193-.531.651-1.476.233-2.222a3.819,3.819,0,0,1,.113-4.135c1.441-2.733.3-5.441-2.14-6.232-5.086-1.653-7.4-.015-7.4,5.24ZM363.3,584.98c.463,1.692-1.207,4.628.8,5.894,1.866,1.179,4.631.565,6.888-.467.113-.053.222-.116.33-.178a6.425,6.425,0,0,0,2.385-7.94c-1.216-3.149-4.374-4.707-8.428-3.989-3.7.654-1.309,3.64-1.962,5.47A5.325,5.325,0,0,0,363.3,584.98Zm-44.653,26c1.342-1.236,2.782-.563,4.076-.715.965-.114,1.762-.291,1.826-1.452a1.654,1.654,0,0,0-1.79-1.943c-1.768-.058-3.538-.011-5.307-.059-1.79-.049-2.468.808-2.418,2.554.076,2.651.04,5.305.03,7.959,0,1.359.138,2.627,1.907,2.642,1.715.015,1.651-1.3,1.558-2.426-.16-1.956.577-2.806,2.589-2.606,1.058.107,2.1-.1,2.007-1.566-.078-1.184-.989-1.281-1.9-1.389C320.4,611.879,319.429,612.2,318.645,610.98Zm65.943-29.091c1.176-.828,2.231-.256,3.175-.485,1.388-.339,2.109-1.5.965-2.429-1.488-1.207-3.476-1.19-5.4-.686a3.521,3.521,0,0,0-2.77,3.194c-.289,1.9.657,3.036,2.228,3.961,1.088.641,2.793.577,3.108,2.306-1.106.947-2.169.323-3.249.134-1.56-.272-2.373.694-1.656,1.916.909,1.546,2.8,1.554,4.441,1.388,1.8-.181,3.506-.772,4.269-2.647.688-1.694-.247-2.846-1.443-3.937C387.173,583.619,385.327,583.723,384.588,581.889Zm-75.7,57.715c1.024-.951,2.447-.452,3.7-.565,1.161-.1,1.972-.56,1.919-1.817-.05-1.2-1.036-1.172-1.922-1.31-6.713-1.055-7.551-.377-7.585,6.24-.008,1.382.008,2.765.024,4.147.014,1.137-.1,2.4,1.534,2.506,1.5.1,1.954-.84,1.956-2.147,0-1.323.056-2.56,1.9-2.575,1.24-.009,2.768.1,2.736-1.746-.036-2.216-1.9-1.431-3.121-1.683C309.569,640.559,309.008,640.591,308.884,639.6ZM288.67,582.3c1.423-1.1,2.575-.788,3.643-.839s2.033-.215,2.079-1.586c.049-1.44-.972-1.47-2.02-1.6-6.9-.86-7.162-.639-7.183,6.282q0,2.26.014,4.52c.009,1.059.131,2.053,1.531,2.109,1.379.056,1.673-.826,1.669-1.95,0-1.316-.006-2.557,1.893-2.508,1.44.038,3.021-.342,2.955-2.062-.076-2.013-2.02-1.335-3.251-1.647A8,8,0,0,1,288.67,582.3Zm32.256,2.717h-.05c0-1.755.046-3.509-.017-5.261-.038-1.108-.822-1.434-1.82-1.4a1.281,1.281,0,0,0-1.329,1.464q-.016,4.887.02,9.776a1.41,1.41,0,0,0,1.61,1.6c1.119-.027,1.558-.67,1.578-1.671C320.948,588.03,320.926,586.525,320.926,585.021Zm-85.958,61.736c-1.522.323-2.567,1.169-2.443,2.808a2.623,2.623,0,0,0,5.218-.276C237.685,647.728,236.581,646.876,234.968,646.757Z" transform="translate(-167.003 -438.313)" fill="#901f37"/>
    <circle id="Ellipse_8" data-name="Ellipse 8" cx="138.19" cy="138.19" r="138.19" transform="translate(31.183 36.841)" fill="#901f37"/>
  </g>
</svg>
